<?xml version="1.0" encoding="UTF-8"?>
<!DOCTYPE svg PUBLIC "-//W3C//DTD SVG 1.1//EN" "http://www.w3.org/Graphics/SVG/1.1/DTD/svg11.dtd">
<!-- Creator: CorelDRAW 2019 (64-Bit) -->
<svg xmlns="http://www.w3.org/2000/svg" xml:space="preserve" width="160.338mm" height="160.337mm" version="1.1" style="shape-rendering:geometricPrecision; text-rendering:geometricPrecision; image-rendering:optimizeQuality; fill-rule:evenodd; clip-rule:evenodd"
viewBox="0 0 2858.95 2858.94"
 xmlns:xlink="http://www.w3.org/1999/xlink">
 <defs>
  <style type="text/css">
   <![CDATA[
    .fil1 {fill:none}
    .fil0 {fill:#1F1B20;fill-opacity:0.101961}
   ]]>
  </style>
 </defs>
 <g id="Capa_x0020_1">
  <metadata id="CorelCorpID_0Corel-Layer"/>
  <g id="_1901324222656">
   <path class="fil0" d="M829.4 1897.51l288.94 -130.44c70.95,44.64 109.12,88.21 219.32,111 191.21,39.55 381.5,-48.34 481.98,-214.81 17.8,-29.49 38.26,-81.92 47.21,-115.32 15.92,-59.42 11.03,-100.78 17.19,-125.64l294.73 -132.84c22.71,62.4 13.97,188.61 6.9,246.14 -64.34,522.98 -674.86,851.94 -1172.36,533.17 -46.82,-30 -154.9,-114.36 -183.91,-171.25zm1377.44 -34.95c8.07,-40.98 78.16,-113.81 106.25,-335.79 9.04,-71.44 12.03,-311.76 -45.28,-387.37l-498.63 224.74c-2.79,106.94 12.5,132.33 -31.1,215.92 -106.11,203.47 -344.84,244.54 -499.84,133.55 -30.9,-22.12 -50.67,-48.01 -81.8,-73.79l-499.74 225.43c15.9,54.34 111.93,164.04 149.05,198.73 59.21,55.35 112.81,94.94 174.08,131.07 382.96,225.81 901.42,122.95 1167.37,-246.05 19.61,-27.2 40.25,-65.19 59.63,-86.42z"/>
   <path class="fil0" d="M974.45 1443.28l-294.67 135.12c-48.94,-156.88 -1.46,-355.82 58.11,-491.52 58.84,-134.01 190.85,-283.19 373.85,-365.6 185.41,-83.5 378.6,-79.08 521.34,-37.08 140.11,41.23 329.34,152.11 405.29,281.83l-301.21 135.86c-99.72,-111.26 -314.32,-167.72 -493.66,-88.16 -189.54,84.09 -279.22,276.21 -269.05,429.54zm-324.13 -432.67c-12.03,34.89 -43.33,82.39 -66.62,155.84 -52.13,164.43 -64.8,392.52 7.9,561l505.97 -228.16c-53.96,-240.11 180.99,-464.13 428.26,-394.01 77.81,22.07 109.01,52.75 177.83,118.33 53.47,-12 444.28,-190.76 504.16,-225.17 -121.08,-259.16 -454.68,-446.59 -745.54,-453.28 -357.32,-8.23 -636.42,167.96 -811.95,465.44z"/>
   <path class="fil0" d="M1237.61 1545.23c138.4,238.72 524.66,28.13 382.5,-220.89 -138.46,-242.54 -526.46,-27.42 -382.5,220.89z"/>
  </g>
  <rect class="fil1" x="-0" width="2858.95" height="2858.94"/>
 </g>
</svg>
