<?xml version="1.0" encoding="UTF-8"?>
<!DOCTYPE svg PUBLIC "-//W3C//DTD SVG 1.1//EN" "http://www.w3.org/Graphics/SVG/1.1/DTD/svg11.dtd">
<!-- Creator: CorelDRAW 2019 (64-Bit) -->
<svg xmlns="http://www.w3.org/2000/svg" xml:space="preserve" width="139.914mm" height="130.813mm" version="1.1" style="shape-rendering:geometricPrecision; text-rendering:geometricPrecision; image-rendering:optimizeQuality; fill-rule:evenodd; clip-rule:evenodd"
viewBox="0 0 4022.62 3760.98"
 xmlns:xlink="http://www.w3.org/1999/xlink">
 <defs>
  <style type="text/css">
   <![CDATA[
    .fil0 {fill:#1F1B20;fill-opacity:0.101961}
   ]]>
  </style>
 </defs>
 <g id="Capa_x0020_1">
  <metadata id="CorelCorpID_0Corel-Layer"/>
  <g id="_1899926306592">
   <path class="fil0" d="M1043.33 2637.04l465.9 -210.33c114.4,71.98 175.95,142.22 353.63,178.98 308.31,63.78 615.14,-77.95 777.15,-346.36 28.71,-47.56 61.68,-132.09 76.11,-185.95 25.67,-95.81 17.78,-162.49 27.72,-202.59l475.23 -214.2c36.62,100.61 22.53,304.13 11.12,396.88 -103.74,843.27 -1088.15,1373.68 -1890.33,859.69 -75.5,-48.37 -249.77,-184.4 -296.53,-276.13zm2221 -56.35c13.01,-66.07 126.02,-183.51 171.33,-541.44 14.58,-115.19 19.4,-502.68 -73.02,-624.61l-804 362.37c-4.5,172.43 20.15,213.37 -50.14,348.15 -171.1,328.07 -556.02,394.3 -805.95,215.33 -49.82,-35.67 -81.7,-77.41 -131.89,-118.98l-805.78 363.48c25.64,87.61 180.47,264.5 240.32,320.44 95.47,89.24 181.9,153.08 280.7,211.33 617.49,364.1 1453.46,198.25 1882.29,-396.74 31.62,-43.86 64.91,-105.12 96.15,-139.34z"/>
   <path class="fil0" d="M1277.21 1904.63l-475.14 217.88c-78.91,-252.96 -2.36,-573.74 93.7,-792.54 94.87,-216.08 307.74,-456.62 602.8,-589.51 298.96,-134.64 610.46,-127.51 840.62,-59.78 225.92,66.47 531.04,245.27 653.5,454.43l-485.68 219.07c-160.79,-179.4 -506.81,-270.44 -795.98,-142.14 -305.61,135.59 -450.21,445.37 -433.82,692.6zm-522.62 -697.64c-19.39,56.27 -69.87,132.84 -107.42,251.29 -84.06,265.12 -104.49,632.9 12.73,904.56l815.83 -367.88c-87,-387.16 291.83,-748.37 690.53,-635.3 125.46,35.58 175.77,85.06 286.74,190.8 86.22,-19.35 716.37,-307.59 812.91,-363.08 -195.23,-417.88 -733.13,-720.08 -1202.12,-730.88 -576.15,-13.27 -1026.17,270.82 -1309.2,750.49z"/>
   <path class="fil0" d="M659.9 2362.83c-117.23,-271.66 -96.79,-639.44 -12.73,-904.56 37.56,-118.44 88.03,-195.02 107.42,-251.29 -7.62,-3.77 -26.81,29.83 -6.16,-54.85 6.18,-25.36 8.48,-39.25 16.04,-63.58 26.3,-84.6 62.07,-160.9 102.53,-237.4l172.25 -603.39c-111.45,49.76 -330.27,246.94 -386.48,330.28 -63.09,93.54 -34.51,109.59 -19.49,230.46l17.26 237.23 -127.27 -275.19c-48.89,30.36 -76.01,110.46 -97.42,151.37 -31.02,59.26 -44.09,83.28 -29.8,164.61l50.33 358.88 -136.55 -269.8c-10.71,19.53 -28.62,158.1 -29.87,181.63 -9.21,171.78 25.47,361.65 77.12,527.48 11.21,35.98 30.51,71.19 22.03,104.96 -122.06,-143.31 -281.62,-322.4 -377.31,-504.43l-1.8 57.42c2.25,17.06 6.4,39.41 9.23,56.84 6.28,38.73 16,72.15 25.93,109.44 27.17,102.09 49.04,147.36 97.86,243.89 99.91,197.57 193.62,224.07 283.3,314 -33.94,-2.61 -112.41,-16.39 -146.8,-30.52 -12.85,-5.28 -115.5,-56.05 -121.59,-61.23 59.05,146.2 287.71,255.74 511.97,187.76z"/>
   <path class="fil0" d="M3264.33 2580.68c18.6,25.4 -50.61,190.59 -66.38,227.54 -19.69,46.12 -37.07,73.04 -57.77,116.18l-165.91 591.18c115.71,-52.09 328.04,-243.77 386.87,-330.82 63.29,-93.64 34.33,-109.24 19.43,-230.47 -5.51,-44.84 -9.92,-83.85 -14.91,-128.33 -3.65,-32.56 -0.74,-86.75 -2.27,-109.03l127.39 275.8c48.9,-31.46 75.57,-108.89 97.29,-151.82 54.58,-107.87 32.52,-179.41 4.11,-350.87l-25.02 -147.85c-1.4,-21.69 -0.33,-11.06 0.66,-25.15 0.14,-1.98 2.5,-4.3 1.49,-8.29 -1.01,-4 0.99,-5.57 3.35,-9l131.05 287.44c34.09,-91.02 36.51,-262.49 23.21,-383.16l-93.66 -402.94c-2.84,-23.5 -3.19,-10.51 1.03,-27.6 64.62,74.69 141.49,152.45 201.97,239.89l179.64 253.06c-0.12,-1.57 4.21,4.06 6.68,5.59 -42.46,-189.61 -38.95,-264.15 -141.72,-461.47 -111.71,-214.49 -190.31,-215.27 -282.94,-314.63 82.07,6.72 208.26,45.1 268.27,91.78 -52.89,-122.57 -279.31,-279.38 -503.59,-173.07 92.42,121.92 87.6,509.42 73.02,624.61 -45.31,357.93 -158.32,475.36 -171.33,541.44z"/>
   <path class="fil0" d="M1701.55 2069.03c223.16,384.91 845.97,45.35 616.74,-356.17 -223.26,-391.07 -848.88,-44.22 -616.74,356.17z"/>
   <path class="fil0" d="M1024.46 623.49c47.73,-38.53 89.83,-88.71 144.92,-133.55 189.95,-154.64 143.97,-37.97 273.95,-279.34 26.19,-48.64 78.25,-114.7 83.98,-165.53 -49.51,3.21 -171.26,46.31 -222.55,66.69 -134.71,53.5 -113.15,54.76 -149.51,150.81 -28.49,75.27 -121.96,290.29 -130.78,360.93z"/>
   <path class="fil0" d="M2484.21 3718.75c70.71,-12.09 161.48,-42.38 234.48,-71.45 128.31,-51.1 108.39,-64.18 142.41,-153.8 43.68,-115.08 94.86,-229.15 128.46,-354.14 -47.89,37.44 -94.54,92.83 -151.59,138.69 -51.59,41.47 -138.16,88.2 -178.54,124.24 -23.82,21.26 -169.65,291.72 -175.21,316.46z"/>
   <path class="fil0" d="M1490.27 290.85c47.55,-11.36 95.47,-33.59 141.47,-47.06 171.08,-50.07 153.03,-2.94 214.61,-125.91 24.15,-48.23 46.53,-76.1 46.7,-117.88 -71.05,12.28 -241.12,-17.16 -281.14,51.64 -45.62,78.43 -77.68,166.36 -121.64,239.21z"/>
   <path class="fil0" d="M2113.91 3753.93c47.97,15.82 256.86,5.58 284.78,-36.43l120.18 -247.41c-54.16,20.72 -100.66,38.55 -154.78,54.58 -37.55,11.13 -104.14,20.19 -132.65,32.17 -42.72,17.96 -96.05,153.08 -117.54,197.09z"/>
   <path class="fil0" d="M1792.7 3707.7c32.69,21.85 175.95,51.34 225.3,38.11 34.15,-60.23 60.8,-108.76 85.77,-169.69l-250.59 1.35c-22.51,34.29 -48.64,90.25 -60.48,130.23z"/>
   <path class="fil0" d="M1912.69 182.94l123.33 1.96c48.3,-0.25 81.46,7.27 124.65,0.37l62.5 -128.86c-36.97,-25.94 -163.39,-42.02 -218.41,-44.39 -24.56,27.55 -80.44,135.07 -92.08,170.91z"/>
   <path class="fil0" d="M2263.59 199.01c26.45,12.4 153.72,45.05 180.58,47.63 25.07,-29.09 41.12,-59.57 48.39,-91.3 -38.97,-31.08 -126.61,-63.07 -168.9,-76.16l-60.07 119.83z"/>
   <path class="fil0" d="M1521.04 3607.59c38.99,30.6 127.17,63.67 173.3,77.35l51.47 -122.98c-20.13,-10.25 -150.18,-43.25 -176.03,-45.63 -25.42,28.83 -40.92,59.53 -48.74,91.26z"/>
   <path class="fil0" d="M1448.98 3569.18c24.08,-22.83 39.31,-51.57 43.68,-82.3 -39.99,-29.11 -111.02,-50.01 -162.41,-86.57l-45.75 47.29c51.23,48.82 103.78,93.25 164.48,121.58z"/>
   <path class="fil0" d="M2521.57 275.77c39.11,29.11 109.99,49.7 159.87,84.86l48.18 -45.41c-33.8,-41.98 -127.31,-102.08 -164.83,-123.89 -23.11,25.72 -39.42,53.87 -43.22,84.44z"/>
  </g>
 </g>
</svg>
