<?xml version="1.0" encoding="UTF-8"?>
<!DOCTYPE svg PUBLIC "-//W3C//DTD SVG 1.1//EN" "http://www.w3.org/Graphics/SVG/1.1/DTD/svg11.dtd">
<!-- Creator: CorelDRAW 2019 (64-Bit) -->
<svg xmlns="http://www.w3.org/2000/svg" xml:space="preserve" width="739.447mm" height="75.0569mm" version="1.1" style="shape-rendering:geometricPrecision; text-rendering:geometricPrecision; image-rendering:optimizeQuality; fill-rule:evenodd; clip-rule:evenodd"
viewBox="0 0 21583.33 2190.8"
 xmlns:xlink="http://www.w3.org/1999/xlink">
 <defs>
  <style type="text/css">
   <![CDATA[
    .str0 {stroke:#2B2A29;stroke-width:5.84;stroke-miterlimit:22.9256}
    .str1 {stroke:#2B2A29;stroke-width:2.22;stroke-miterlimit:22.9256}
    .fil3 {fill:#FEFEFE}
    .fil8 {fill:#FEFEFE}
    .fil4 {fill:#2B2A29}
    .fil1 {fill:#E31E24}
    .fil2 {fill:#2C2119}
    .fil5 {fill:#4F5154}
    .fil0 {fill:#1F1B20}
    .fil12 {fill:#1F1B20}
    .fil16 {fill:#2C2119;fill-rule:nonzero}
    .fil7 {fill:#1F1B20;fill-rule:nonzero}
    .fil10 {fill:url(#id0)}
    .fil14 {fill:url(#id1)}
    .fil9 {fill:url(#id2)}
    .fil13 {fill:url(#id3)}
    .fil6 {fill:url(#id4)}
    .fil11 {fill:url(#id5)}
    .fil17 {fill:url(#id6)}
    .fil15 {fill:url(#id7)}
   ]]>
  </style>
  <linearGradient id="id0" gradientUnits="userSpaceOnUse" x1="3408.32" y1="1204.63" x2="3484.87" y2="775.49">
   <stop offset="0" style="stop-opacity:1; stop-color:#8F908E"/>
   <stop offset="1" style="stop-opacity:1; stop-color:#FEFEFE"/>
  </linearGradient>
  <linearGradient id="id1" gradientUnits="userSpaceOnUse" xlink:href="#id0" x1="5175.96" y1="1206.94" x2="5243.75" y2="774.78">
  </linearGradient>
  <linearGradient id="id2" gradientUnits="userSpaceOnUse" x1="2841.6" y1="1203.86" x2="2916.04" y2="772.3">
   <stop offset="0" style="stop-opacity:1; stop-color:#8F908E"/>
   <stop offset="1" style="stop-opacity:1; stop-color:#E1E3E3"/>
  </linearGradient>
  <linearGradient id="id3" gradientUnits="userSpaceOnUse" xlink:href="#id0" x1="4576.47" y1="1203.65" x2="4652.39" y2="779.05">
  </linearGradient>
  <linearGradient id="id4" gradientUnits="userSpaceOnUse" x1="1491.3" y1="1248.53" x2="1585.6" y2="732.45">
   <stop offset="0" style="stop-opacity:1; stop-color:#8F908E"/>
   <stop offset="1" style="stop-opacity:1; stop-color:white"/>
  </linearGradient>
  <linearGradient id="id5" gradientUnits="userSpaceOnUse" xlink:href="#id0" x1="3998.91" y1="1203.75" x2="4070.86" y2="777.94">
  </linearGradient>
  <linearGradient id="id6" gradientUnits="userSpaceOnUse" xlink:href="#id4" x1="2210" y1="1244.31" x2="2259.16" y2="888.87">
  </linearGradient>
  <linearGradient id="id7" gradientUnits="userSpaceOnUse" xlink:href="#id0" x1="2190" y1="1057.61" x2="2221.44" y2="925.69">
  </linearGradient>
 </defs>
 <g id="Capa_x0020_1">
  <metadata id="CorelCorpID_0Corel-Layer"/>
  <rect class="fil0 str0" x="2.92" y="2.92" width="21577.49" height="1826.55"/>
  <rect class="fil1 str0" x="2.92" y="2.92" width="21577.49" height="1262.65"/>
  <circle class="fil2 str0" cx="19952.38" cy="1551.52" r="636.36"/>
  <circle class="fil3 str0" cx="19952.38" cy="1551.52" r="550.32"/>
  <circle class="fil4 str0" cx="19952.38" cy="1551.52" r="337.17"/>
  <circle class="fil5 str0" cx="19952.38" cy="1551.52" r="250.68"/>
  <g id="_1901385474352">
   <path class="fil0" d="M1183.74 674.62l0 634.03 337.52 -3.16 1.58 -108.83 167.18 1.58c45.21,-36.8 90.43,-73.6 135.64,-110.41 95.91,259.46 458.21,363.02 692.38,113.56l3.16 105.67 1671.81 -1.58 134.06 -110.4 140.37 111.98 684.5 -4.73 56.78 -56.78 55.2 61.51 438.46 -3.15 -268.12 -307.55 280.74 -321.74 -449.5 -4.73 -53.63 66.24 -58.36 -64.66 -690.81 1.58 -130.9 116.71 -135.64 -116.71 -540.97 3.15 7.89 -156.14 -403.76 63.09 -3.15 93.05 -730.24 -4.73 -1.58 116.71c-190.73,-212.31 -491.28,-196.7 -662.42,29.96l-168.76 -143.52 -509.43 0z"/>
   <polygon class="fil3 str1" points="3317.89,636.51 3601.8,591.3 3598.04,741.59 3315.36,772.44 "/>
   <polygon class="fil6" points="1468.98,1138.98 1467.42,1246.56 1244.54,1251.68 1248.33,732.95 1668.86,729.29 1832.35,862.37 1832.35,999.38 1679.91,1140.39 "/>
   <path class="fil7" d="M1475.17 1145.31l-1.55 107.4 -235.41 5.41c1.31,-177.13 2.6,-354.26 3.88,-531.39 142.99,-1.24 285.99,-2.42 428.99,-3.73 55.85,45.49 111.72,90.95 167.59,136.41l0 142.69c-52.09,48.22 -104.18,96.44 -156.32,144.59l-207.17 -1.38zm-13.95 95.11l1.56 -107.76 214.69 1.43 148.57 -137.42 0 -131.32 -159.4 -129.75 -412.07 3.58 -3.7 506.07 210.35 -4.84z"/>
   <path class="fil7" d="M1281.55 1207.68l3.2 -438.35c123.74,-1.07 247.47,-2.09 371.21,-3.23 46.56,37.92 93.15,75.83 139.73,113.74l0 103.47c-43.33,40.12 -86.67,80.23 -130.05,120.3l-232.82 -1.55 -1.58 108.65 -149.74 3.44 0.05 -6.46zm15.68 -425.89l-3.06 419.49 124.69 -2.87 1.58 -109.01 240.34 1.6 122.3 -113.13 0 -92.1 -131.54 -107.07 -354.3 3.08z"/>
   <polygon class="fil8" points="2807.48,842.42 2918.44,731.46 3240.07,730.16 2970.97,981.19 3246.59,1247.4 2931.06,1250.04 2807.88,1121.08 2806.6,1245.94 2574.44,1245.94 2584.26,730.42 2808.74,730.37 "/>
   <polygon class="fil9" points="2626.87,778.71 2764.08,775.56 2762.5,915.93 2793.26,919.08 2937.18,775.16 3128.02,770.43 2907.21,980.98 3138.27,1204.15 2949.79,1205.73 2798.39,1047.22 2764.48,1048.01 2762.9,1201.79 2619.38,1201.79 "/>
   <path class="fil7" d="M2626.74 772.43l143.69 -3.3 -1.58 141.13 22.05 2.26 143.57 -143.58c69.89,-1.71 139.78,-3.46 209.67,-5.2l-227.85 217.27 237.4 229.3 -206.58 1.73 -151.37 -158.46 -25.05 0.58 -1.58 153.94 -156.14 0c2.6,-145.17 5.17,-290.36 7.71,-435.53l6.06 -0.14zm130.98 9.56l-124.68 2.87 -7.27 410.62 130.9 0 1.58 -153.61 42.77 -1 151.45 158.55 170.36 -1.42 -224.72 -217.05 213.76 -203.84 -172.01 4.26 -144.26 144.26 -39.46 -4.04 1.57 -139.61z"/>
   <polygon class="fil3" points="3178.77,849.41 3314.73,731.68 3783,729.16 3633.54,932.58 3604.16,932.72 3603.68,1047.82 3630.58,1047.82 3778.81,1247.55 3318.73,1250.59 3152.93,1114.24 3154.4,859.15 "/>
   <polygon class="fil10" points="3201.74,887.14 3331.07,775.16 3696.58,773.19 3611.41,889.12 3357.49,890.3 3357.49,942.35 3560.55,942.35 3560.16,1037.37 3357.88,1039.34 3357.88,1091.39 3608.66,1091.39 3692.64,1204.55 3334.22,1206.92 3196.61,1093.76 3197.79,888.72 "/>
   <path class="fil7" d="M3198.43 881.69l130.28 -112.8c126.78,-0.65 253.57,-1.35 380.35,-2.05l-94.44 128.55 -250.82 1.17 0 39.48 203.06 0 -0.45 107.56 -202.22 1.97 0 39.52 247.61 0 93.27 125.67 -373.09 2.46 -141.68 -116.51c0.42,-70.76 0.83,-141.51 1.23,-212.27l6.89 -2.76zm135.01 -100.26l-128.38 111.16 -1 0.4 -1.14 197.8 133.55 109.82 343.74 -2.27 -74.7 -100.65 -253.93 0 0 -64.58 202.33 -1.97 0.34 -82.49 -203.06 0 0 -64.61 257.03 -1.2 75.9 -103.3 -350.66 1.89z"/>
   <polygon class="fil3" points="3727.93,733.06 4178.54,730.31 4340.1,866.87 4342.01,1114.62 4179.37,1251.28 3727.93,1251.28 "/>
   <polygon class="fil11" points="3773.86,778.71 4161.85,776.35 4294.33,888.33 4295.91,1093.36 4162.64,1205.34 3773.86,1205.34 "/>
   <path class="fil7" d="M3773.84 772.43l390.31 -2.38 136.44 115.33c0.57,70.3 1.09,140.59 1.62,210.89 -45.76,38.48 -91.55,76.93 -137.33,115.39l-397.34 0 0 -439.18 6.28 -0.04zm385.71 10.22l-379.38 2.31 0 414.07 380.22 0 129.22 -108.58 -1.53 -199.18 -128.52 -108.63z"/>
   <rect class="fil3" x="3911.07" y="887.54" width="246.04" height="205.82"/>
   <path class="fil7" d="M3911.07 881.23l252.35 0 0 218.44 -258.66 0 0 -218.44 6.31 0zm239.73 12.62l-233.42 0 0 193.2 233.42 0 0 -193.2z"/>
   <rect class="fil12" x="3959.97" y="936.43" width="152.99" height="111.98"/>
   <path class="fil7" d="M3959.97 930.12l159.3 0 0 124.6 -165.61 0 0 -124.6 6.31 0zm146.68 12.62l-140.37 0 0 99.36 140.37 0 0 -99.36z"/>
   <path class="fil7" d="M3720.23 824.15l-80.31 116.23 -31.67 0 0 102.69 30.95 0.72 81.03 116.96 0 -336.6zm-86.87 103.61l99.49 -144 0 417.3 -100.35 -144.85 -36.87 -0.86 0 -127.59 37.72 0z"/>
   <polygon class="fil3" points="4954.27,730.36 4805.77,938.78 4775.15,938.83 4775.58,1043.27 4803.66,1043.45 4951.58,1250.39 4485.84,1254 4319.69,1116.91 4320.18,864.6 4480.49,729.84 "/>
   <polygon class="fil13" points="4368.05,886.96 4497.98,777.74 4847.13,777.34 4861.22,776.75 4780.87,890.91 4526.95,891.3 4526.16,940.98 4727.25,941.77 4727.64,1039.16 4526.16,1039.95 4526.95,1089.63 4778.9,1091.21 4858.94,1203.19 4502.89,1205.95 4367.65,1094.36 "/>
   <path class="fil7" d="M4364.01 882.15l131.68 -110.7 351.19 -0.4 26.83 -1.12c-29.85,42.42 -59.69,84.84 -89.56,127.25l-251.02 0.39 -0.59 37.15 200.97 0.79 0.44 109.91 -201.41 0.79 0.59 37.18 249.02 1.56 88.95 124.43c-123.48,0.97 -246.97,1.98 -370.45,2.87 -46.44,-38.3 -92.87,-76.61 -139.3,-114.93 0.14,-71.09 0.31,-142.19 0.41,-213.29l2.24 -1.88zm136.25 -98.13l-125.93 105.86 -0.39 201.52 131.19 108.24 341.65 -2.65 -71.14 -99.53 -254.89 -1.6 -0.99 -62.19 201.56 -0.79 -0.34 -84.87 -201.22 -0.79 0.99 -62.22 256.84 -0.4 71.13 -101.06c-112.23,4.72 -235.05,0.32 -348.46,0.45z"/>
   <path class="fil7" d="M4773.92 928.78l29.75 0.71 90.11 -129.08 170.36 187.86c-56.61,63.72 -113.24,127.41 -169.87,191.11l-90.62 -127.6 -37.01 0 0.88 -123.15 6.39 0.15zm32.83 13.36l-26.74 -0.64 -0.7 97.66 30.81 0 85.24 120.02 151.87 -170.86 -152.17 -167.8 -84.96 121.69 -3.36 -0.08z"/>
   <polygon class="fil3" points="4839.36,990.84 4899.91,1076.1 4977.61,988.68 4900.35,903.49 "/>
   <path class="fil7" d="M4847.05 990.81l53.4 75.2 68.7 -77.29 -68.17 -75.17 -53.94 77.26zm47.73 88.94l-63.11 -88.86 68.04 -97.46 86.36 95.23 -86.7 97.55 -4.58 -6.45z"/>
   <polygon class="fil3" points="5209.35,820.33 5291.69,729.69 5592.11,730.98 5361.39,991.13 5583.14,1245.91 5290.52,1252.38 5209.23,1163.47 5132.4,1250.37 4831.01,1250.37 5055.38,991.78 4827.03,730.22 5127.06,730.39 "/>
   <polygon class="fil14" points="5107.74,774.79 5209.46,885.98 5311.19,774 5494.14,774.79 5302.52,990.86 5487.84,1203.78 5309.61,1207.72 5208.67,1097.32 5112.47,1206.15 4927.93,1206.15 5114.04,991.65 4925.57,776.36 "/>
   <path class="fil7" d="M5112.37 770.55l97.07 106.1 98.97 -108.95c66.56,0.32 133.11,0.58 199.67,0.86l-197.17 222.32 190.51 218.88c-64.83,1.44 -129.67,2.9 -194.5,4.3l-98.15 -107.35 -93.48 105.74 -201.15 0 191.57 -220.79 -193.89 -221.47c66.22,-0.57 132.44,-1.12 198.66,-1.72l1.89 2.07zm92.46 119.67l-99.84 -109.12 -165.67 1.44 183.06 209.1 -180.64 208.2 167.92 0 98.94 -111.91 103.73 113.45 161.95 -3.58 -180.13 -206.96 186.09 -209.82 -166.24 -0.72 -104.49 115.02 -4.66 -5.1z"/>
   <ellipse class="fil3" cx="2205.72" cy="991.65" rx="337.14" ry="296.92"/>
   <path class="fil7" d="M2205.72 688.42c94.68,0 180.44,33.84 242.56,88.54 62.33,54.9 100.89,130.8 100.89,214.69 0,83.89 -38.56,159.79 -100.89,214.69 -62.12,54.71 -147.88,88.54 -242.56,88.54 -94.68,0 -180.44,-33.84 -242.56,-88.54 -62.33,-54.9 -100.89,-130.8 -100.89,-214.69 0,-83.89 38.56,-159.79 100.89,-214.69 62.12,-54.71 147.88,-88.54 242.56,-88.54zm234.23 98.01c-59.9,-52.76 -142.71,-85.39 -234.23,-85.39 -91.52,0 -174.33,32.63 -234.23,85.39 -59.68,52.57 -96.6,125.13 -96.6,205.23 0,80.1 36.92,152.66 96.6,205.22 59.9,52.76 142.71,85.39 234.23,85.39 91.51,0 174.33,-32.63 234.23,-85.39 59.68,-52.57 96.6,-125.13 96.6,-205.22 0,-80.1 -36.92,-152.66 -96.6,-205.23z"/>
   <ellipse class="fil15" cx="2205.72" cy="991.65" rx="78.07" ry="67.34"/>
   <path class="fil7" d="M2205.72 918c23.1,0 44.08,8.13 59.32,21.28 15.48,13.36 25.06,31.87 25.06,52.38 0,20.5 -9.58,39.02 -25.06,52.37 -15.24,13.14 -36.22,21.28 -59.32,21.28 -23.1,0 -44.08,-8.13 -59.32,-21.28 -15.48,-13.35 -25.06,-31.87 -25.06,-52.37 0,-20.5 9.58,-39.02 25.06,-52.38 15.24,-13.14 36.22,-21.28 59.32,-21.28zm51.09 30.79c-13.02,-11.23 -31.08,-18.17 -51.09,-18.17 -20.01,0 -38.07,6.94 -51.09,18.17 -12.77,11.02 -20.67,26.17 -20.67,42.86 0,16.68 7.9,31.84 20.67,42.86 13.02,11.23 31.07,18.17 51.09,18.17 20.01,0 38.07,-6.95 51.09,-18.17 12.77,-11.02 20.67,-26.17 20.67,-42.86 0,-16.69 -7.9,-31.84 -20.67,-42.86z"/>
   <path class="fil7" d="M3358.24 666.26l206.77 -32.93 -1.9 76.14 -211.29 23.06 1.22 -65.45 5.2 -0.83zm193.83 -18.13l-186.66 29.72 -0.76 40.62 186.16 -20.32 1.25 -50.03z"/>
   <path class="fil16" d="M1421.07 871.78l238.15 0 0 126.96 -244.47 0 0 -126.96 6.31 0zm225.54 12.62l-219.23 0 0 101.72 219.23 0 0 -101.72z"/>
   <rect class="fil12" x="1469.96" y="926.99" width="131.69" height="20.5"/>
   <path class="fil7" d="M1469.96 920.68l138.01 0 0 33.12 -144.31 0 0 -33.12 6.31 0zm125.39 12.62l-119.07 0 0 7.88 119.07 0 0 -7.88z"/>
   <path class="fil1" d="M2205.72 739.3c-161.58,0 -292.57,112.98 -292.57,252.35 0,34.27 7.92,66.96 22.27,96.75 37.51,-19.11 80.86,-40.79 126.35,-63.3 -3.32,-10.67 -5.1,-21.88 -5.1,-33.45 0,-71 66.73,-128.56 149.05,-128.56 42.09,0 80.11,15.05 107.21,39.25 53.25,-25.77 98.47,-47.54 127.44,-61.45 -53.34,-61.67 -138.59,-101.6 -234.65,-101.6z"/>
   <path class="fil7" d="M2205.72 745.61c-79.25,0 -150.93,27.65 -202.76,72.36 -51.59,44.5 -83.5,105.91 -83.5,173.68 0,16.47 1.87,32.53 5.43,48.02 3.18,13.84 7.72,27.26 13.49,40.15 14.94,-7.59 32.53,-16.45 52.26,-26.33 21.73,-10.89 43,-21.48 63.63,-31.7 -1.07,-4.05 -1.92,-8.15 -2.55,-12.3 -0.89,-5.85 -1.35,-11.81 -1.35,-17.84 0,-37.41 17.52,-71.23 45.85,-95.66 28.08,-24.22 66.8,-39.21 109.51,-39.21 21.38,0 41.79,3.76 60.36,10.56 17.88,6.55 34.08,15.94 47.83,27.53 25.2,-12.19 48.53,-23.46 69.11,-33.37l47.09 -22.65c-25.78,-27.93 -58.45,-50.94 -95.79,-67.11 -38.63,-16.73 -82.31,-26.14 -128.59,-26.14zm-210.99 62.85c54.05,-46.63 128.66,-75.46 210.99,-75.46 47.96,0 93.34,9.81 133.57,27.22 41.83,18.11 78.06,44.46 105.84,76.57l5.38 6.22 -62.01 29.85c-21.58,10.4 -46.2,22.29 -72.82,35.17l-3.78 1.83 -3.15 -2.81c-13.2,-11.78 -29.16,-21.32 -47.01,-27.85 -17.18,-6.29 -36.11,-9.77 -56.02,-9.77 -39.61,0 -75.42,13.8 -101.28,36.1 -25.62,22.09 -41.46,52.56 -41.46,86.15 0,5.43 0.41,10.76 1.2,15.97 0.81,5.34 2.02,10.55 3.6,15.6l1.6 5.13 -4.82 2.39c-24.92,12.34 -47.97,23.8 -68.3,33.98 -18.5,9.27 -37.85,19.05 -57.97,29.3l-5.73 2.92 -2.79 -5.8c-7.47,-15.51 -13.25,-31.79 -17.13,-48.65 -3.79,-16.47 -5.78,-33.47 -5.78,-50.83 0,-71.59 33.59,-136.36 87.89,-183.2z"/>
   <path class="fil17" d="M2354.76 991.65c0,71 -66.73,128.55 -149.05,128.55 -43.23,0 -82.16,-15.87 -109.38,-41.23l-125.47 63.2c53.33,61.8 138.67,101.83 234.85,101.83 161.58,0 292.57,-112.98 292.57,-252.35 0,-36.48 -8.98,-71.16 -25.13,-102.47l-125.48 63.2c4.6,12.38 7.08,25.57 7.08,39.27z"/>
   <path class="fil7" d="M2361.07 991.65c0,37.41 -17.52,71.23 -45.85,95.66 -28.09,24.22 -66.8,39.21 -109.51,39.21 -21.95,0 -42.87,-3.97 -61.85,-11.12 -18.28,-6.89 -34.74,-16.75 -48.56,-28.86l-114.3 57.57c25.8,28.05 58.53,51.15 95.96,67.38 38.66,16.77 82.39,26.21 128.74,26.21 79.25,0 150.93,-27.65 202.76,-72.36 51.59,-44.49 83.5,-105.91 83.5,-173.68 0,-17.54 -2.12,-34.6 -6.14,-51 -3.64,-14.86 -8.86,-29.24 -15.49,-43.01l-114.93 57.89c1.57,4.92 2.83,9.96 3.76,15.09 1.25,6.94 1.9,13.97 1.9,21.02zm-54.08 86.15c25.62,-22.1 41.46,-52.56 41.46,-86.15 0,-6.49 -0.57,-12.77 -1.65,-18.81 -1.13,-6.26 -2.81,-12.36 -5.01,-18.27l-1.96 -5.29 136.07 -68.53 2.86 5.54c8.4,16.29 14.92,33.49 19.31,51.4 4.28,17.46 6.53,35.51 6.53,53.95 0,71.59 -33.58,136.36 -87.88,183.19 -54.05,46.63 -128.66,75.47 -210.99,75.47 -48.02,0 -93.45,-9.83 -133.72,-27.29 -41.87,-18.16 -78.12,-44.56 -105.89,-76.73l-5.27 -6.11 136.58 -68.79 3.2 2.99c13.28,12.37 29.49,22.39 47.68,29.25 17.54,6.61 36.96,10.28 57.41,10.28 39.61,0 75.41,-13.79 101.28,-36.1z"/>
   <path class="fil3 str0" d="M1646.61 986.13l0 -101.72 -219.23 0 0 101.72 219.23 0zm-176.65 -65.45l138.01 0 0 33.12 -144.31 0 0 -33.12 6.31 0z"/>
  </g>
 </g>
</svg>
