<?xml version="1.0" encoding="UTF-8"?>
<!DOCTYPE svg PUBLIC "-//W3C//DTD SVG 1.1//EN" "http://www.w3.org/Graphics/SVG/1.1/DTD/svg11.dtd">
<!-- Creator: CorelDRAW 2019 (64-Bit) -->
<svg xmlns="http://www.w3.org/2000/svg" xml:space="preserve" width="155.241mm" height="28.2258mm" version="1.1" style="shape-rendering:geometricPrecision; text-rendering:geometricPrecision; image-rendering:optimizeQuality; fill-rule:evenodd; clip-rule:evenodd"
viewBox="0 0 921.79 167.6"
 xmlns:xlink="http://www.w3.org/1999/xlink">
 <defs>
  <style type="text/css">
   <![CDATA[
    .str1 {stroke:#2B2A29;stroke-width:1.19;stroke-miterlimit:22.9256}
    .str0 {stroke:#2B2A29;stroke-width:0.45;stroke-miterlimit:22.9256}
    .fil1 {fill:#FEFEFE}
    .fil4 {fill:#FEFEFE}
    .fil13 {fill:#E31E24}
    .fil0 {fill:#1F1B20}
    .fil8 {fill:#1F1B20}
    .fil12 {fill:#2C2119;fill-rule:nonzero}
    .fil3 {fill:#1F1B20;fill-rule:nonzero}
    .fil6 {fill:url(#id0)}
    .fil10 {fill:url(#id1)}
    .fil5 {fill:url(#id2)}
    .fil9 {fill:url(#id3)}
    .fil2 {fill:url(#id4)}
    .fil7 {fill:url(#id5)}
    .fil14 {fill:url(#id6)}
    .fil11 {fill:url(#id7)}
   ]]>
  </style>
  <linearGradient id="id0" gradientUnits="userSpaceOnUse" x1="452.54" y1="139.26" x2="468.12" y2="51.96">
   <stop offset="0" style="stop-opacity:1; stop-color:#8F908E"/>
   <stop offset="1" style="stop-opacity:1; stop-color:#FEFEFE"/>
  </linearGradient>
  <linearGradient id="id1" gradientUnits="userSpaceOnUse" xlink:href="#id0" x1="812.13" y1="139.73" x2="825.92" y2="51.82">
  </linearGradient>
  <linearGradient id="id2" gradientUnits="userSpaceOnUse" x1="337.26" y1="139.11" x2="352.4" y2="51.31">
   <stop offset="0" style="stop-opacity:1; stop-color:#8F908E"/>
   <stop offset="1" style="stop-opacity:1; stop-color:#E1E3E3"/>
  </linearGradient>
  <linearGradient id="id3" gradientUnits="userSpaceOnUse" xlink:href="#id0" x1="690.18" y1="139.06" x2="705.62" y2="52.69">
  </linearGradient>
  <linearGradient id="id4" gradientUnits="userSpaceOnUse" x1="62.57" y1="148.19" x2="81.75" y2="43.21">
   <stop offset="0" style="stop-opacity:1; stop-color:#8F908E"/>
   <stop offset="1" style="stop-opacity:1; stop-color:white"/>
  </linearGradient>
  <linearGradient id="id5" gradientUnits="userSpaceOnUse" xlink:href="#id0" x1="572.69" y1="139.08" x2="587.32" y2="52.46">
  </linearGradient>
  <linearGradient id="id6" gradientUnits="userSpaceOnUse" xlink:href="#id4" x1="208.77" y1="147.33" x2="218.77" y2="75.03">
  </linearGradient>
  <linearGradient id="id7" gradientUnits="userSpaceOnUse" xlink:href="#id0" x1="204.7" y1="109.35" x2="211.1" y2="82.52">
  </linearGradient>
 </defs>
 <g id="Capa_x0020_1">
  <metadata id="CorelCorpID_0Corel-Layer"/>
  <g id="_1901385509168">
   <path class="fil0" d="M-0 31.44l0 128.98 68.66 -0.64 0.32 -22.14 34.01 0.32c9.2,-7.49 18.4,-14.97 27.59,-22.46 19.51,52.78 93.21,73.85 140.85,23.1l0.64 21.5 340.1 -0.32 27.27 -22.46 28.56 22.78 139.25 -0.96 11.55 -11.55 11.23 12.51 89.2 -0.64 -54.54 -62.57 57.11 -65.45 -91.44 -0.96 -10.91 13.48 -11.87 -13.15 -140.53 0.32 -26.63 23.74 -27.59 -23.74 -110.05 0.64 1.6 -31.76 -82.14 12.83 -0.64 18.93 -148.55 -0.96 -0.32 23.74c-38.8,-43.19 -99.94,-40.01 -134.76,6.1l-34.33 -29.2 -103.63 0z"/>
   <polygon class="fil1 str0" points="434.15,23.69 491.9,14.49 491.14,45.07 433.63,51.34 "/>
   <polygon class="fil2" points="58.03,125.91 57.71,147.79 12.37,148.83 13.14,43.31 98.69,42.57 131.95,69.64 131.95,97.51 100.94,126.19 "/>
   <path class="fil3" d="M59.29 127.19l-0.32 21.85 -47.89 1.1c0.27,-36.03 0.53,-72.07 0.79,-108.1 29.09,-0.25 58.18,-0.49 87.27,-0.76 11.36,9.25 22.73,18.5 34.09,27.75l0 29.03c-10.6,9.81 -21.19,19.62 -31.8,29.41l-42.14 -0.28zm-2.84 19.35l0.32 -21.92 43.67 0.29 30.22 -27.96 0 -26.71 -32.43 -26.39 -83.83 0.73 -0.75 102.95 42.79 -0.98z"/>
   <path class="fil3" d="M19.9 139.88l0.65 -89.17c25.17,-0.22 50.34,-0.43 75.51,-0.66 9.47,7.71 18.95,15.43 28.43,23.14l0 21.05c-8.82,8.16 -17.63,16.32 -26.46,24.47l-47.36 -0.32 -0.32 22.1 -30.46 0.7 0.01 -1.31zm3.19 -86.64l-0.62 85.34 25.37 -0.58 0.32 -22.18 48.89 0.33 24.88 -23.01 0 -18.73 -26.76 -21.78 -72.07 0.63z"/>
   <polygon class="fil4" points="330.32,65.58 352.89,43.01 418.32,42.74 363.57,93.81 419.64,147.96 355.46,148.5 330.4,122.27 330.14,147.67 282.91,147.67 284.91,42.79 330.57,42.78 "/>
   <polygon class="fil5" points="293.57,52.62 321.49,51.98 321.17,80.53 327.42,81.17 356.7,51.9 395.52,50.93 350.6,93.77 397.61,139.17 359.27,139.49 328.47,107.24 321.57,107.4 321.25,138.68 292.05,138.68 "/>
   <path class="fil3" d="M293.55 51.34l29.23 -0.67 -0.32 28.71 4.49 0.46 29.21 -29.21c14.22,-0.35 28.44,-0.7 42.65,-1.06l-46.35 44.2 48.29 46.65 -42.02 0.35 -30.79 -32.24 -5.1 0.12 -0.32 31.32 -31.76 0c0.53,-29.53 1.05,-59.07 1.57,-88.6l1.23 -0.03zm26.65 1.95l-25.36 0.58 -1.48 83.53 26.63 0 0.32 -31.25 8.7 -0.2 30.81 32.25 34.66 -0.29 -45.71 -44.15 43.49 -41.47 -34.99 0.87 -29.35 29.35 -8.03 -0.82 0.32 -28.4z"/>
   <polygon class="fil1" points="405.85,67 433.51,43.05 528.76,42.54 498.36,83.92 492.38,83.95 492.29,107.36 497.76,107.36 527.91,147.99 434.32,148.61 400.59,120.87 400.89,68.98 "/>
   <polygon class="fil6" points="410.52,74.68 436.83,51.9 511.18,51.5 493.86,75.08 442.2,75.32 442.2,85.91 483.51,85.91 483.43,105.24 442.28,105.64 442.28,116.23 493.3,116.23 510.38,139.25 437.47,139.73 409.48,116.71 409.72,75 "/>
   <path class="fil3" d="M409.85 73.57l26.5 -22.95c25.79,-0.13 51.58,-0.28 77.37,-0.42l-19.21 26.15 -51.02 0.24 0 8.03 41.31 0 -0.09 21.88 -41.14 0.4 0 8.04 50.37 0 18.97 25.57 -75.9 0.5 -28.82 -23.7c0.09,-14.39 0.17,-28.79 0.25,-43.18l1.4 -0.56zm27.47 -20.4l-26.12 22.61 -0.2 0.08 -0.23 40.24 27.17 22.34 69.93 -0.46 -15.2 -20.48 -51.66 0 0 -13.14 41.16 -0.4 0.07 -16.78 -41.31 0 0 -13.14 52.29 -0.24 15.44 -21.02 -71.34 0.38z"/>
   <polygon class="fil1" points="517.56,43.33 609.23,42.77 642.09,70.55 642.48,120.95 609.4,148.75 517.56,148.75 "/>
   <polygon class="fil7" points="526.9,52.62 605.83,52.14 632.78,74.92 633.1,116.63 605.99,139.41 526.9,139.41 "/>
   <path class="fil3" d="M526.9 51.34l79.4 -0.48 27.76 23.46c0.12,14.3 0.22,28.6 0.33,42.9 -9.31,7.83 -18.62,15.65 -27.94,23.47l-80.83 0 0 -89.34 1.28 -0.01zm78.46 2.08l-77.18 0.47 0 84.23 77.35 0 26.29 -22.09 -0.31 -40.52 -26.15 -22.1z"/>
   <rect class="fil1" x="554.82" y="74.76" width="50.05" height="41.87"/>
   <path class="fil3" d="M554.82 73.47l51.34 0 0 44.44 -52.62 0 0 -44.44 1.28 0zm48.77 2.57l-47.48 0 0 39.3 47.48 0 0 -39.3z"/>
   <rect class="fil8" x="564.76" y="84.7" width="31.12" height="22.78"/>
   <path class="fil3" d="M564.76 83.42l32.41 0 0 25.35 -33.69 0 0 -25.35 1.28 0zm29.84 2.57l-28.56 0 0 20.21 28.56 0 0 -20.21z"/>
   <path class="fil3" d="M516 61.86l-16.34 23.64 -6.44 0 0 20.89 6.3 0.15 16.48 23.79 0 -68.47zm-17.67 21.08l20.24 -29.29 0 84.89 -20.41 -29.47 -7.5 -0.17 0 -25.95 7.67 0z"/>
   <polygon class="fil1" points="767.04,42.78 736.83,85.18 730.6,85.19 730.68,106.44 736.4,106.47 766.49,148.57 671.74,149.31 637.94,121.42 638.04,70.09 670.65,42.68 "/>
   <polygon class="fil9" points="647.78,74.64 674.21,52.42 745.24,52.34 748.11,52.22 731.76,75.44 680.1,75.52 679.94,85.63 720.85,85.79 720.93,105.6 679.94,105.76 680.1,115.87 731.36,116.19 747.64,138.97 675.21,139.53 647.7,116.83 "/>
   <path class="fil3" d="M646.96 73.66l26.79 -22.52 71.44 -0.08 5.46 -0.23c-6.07,8.63 -12.14,17.26 -18.22,25.89l-51.06 0.08 -0.12 7.56 40.88 0.16 0.09 22.36 -40.97 0.16 0.12 7.56 50.66 0.32 18.09 25.31c-25.12,0.2 -50.24,0.4 -75.36,0.58 -9.45,-7.79 -18.89,-15.58 -28.34,-23.38 0.03,-14.46 0.06,-28.93 0.08,-43.39l0.46 -0.38zm27.72 -19.96l-25.62 21.54 -0.08 41 26.69 22.02 69.5 -0.54 -14.47 -20.25 -51.85 -0.32 -0.2 -12.65 41 -0.16 -0.07 -17.27 -40.93 -0.16 0.2 -12.66 52.25 -0.08 14.47 -20.56c-22.83,0.96 -47.82,0.07 -70.89,0.09z"/>
   <path class="fil3" d="M730.35 83.15l6.05 0.14 18.33 -26.26 34.66 38.22c-11.52,12.96 -23.04,25.92 -34.56,38.88l-18.43 -25.96 -7.53 0 0.18 -25.05 1.3 0.03zm6.68 2.72l-5.44 -0.13 -0.14 19.87 6.27 0 17.34 24.42 30.9 -34.76 -30.96 -34.13 -17.28 24.76 -0.68 -0.02z"/>
   <polygon class="fil1" points="743.66,95.77 755.98,113.12 771.78,95.33 756.07,78 "/>
   <path class="fil3" d="M745.22 95.76l10.86 15.3 13.98 -15.72 -13.87 -15.29 -10.97 15.72zm9.71 18.09l-12.84 -18.08 13.84 -19.83 17.57 19.37 -17.64 19.84 -0.93 -1.31z"/>
   <polygon class="fil1" points="818.92,61.08 835.68,42.65 896.79,42.91 849.85,95.83 894.96,147.66 835.44,148.98 818.9,130.89 803.27,148.57 741.96,148.57 787.6,95.96 741.15,42.75 802.19,42.79 "/>
   <polygon class="fil10" points="798.25,51.82 818.95,74.44 839.64,51.66 876.86,51.82 837.88,95.78 875.58,139.09 839.32,139.89 818.79,117.43 799.22,139.57 761.68,139.57 799.54,95.94 761.2,52.14 "/>
   <path class="fil3" d="M799.2 50.96l19.75 21.58 20.13 -22.16c13.54,0.06 27.08,0.12 40.62,0.18l-40.11 45.23 38.76 44.53c-13.19,0.29 -26.38,0.59 -39.57,0.88l-19.97 -21.84 -19.02 21.51 -40.92 0 38.97 -44.92 -39.44 -45.05c13.47,-0.12 26.94,-0.23 40.41,-0.35l0.39 0.42zm18.81 24.34l-20.31 -22.2 -33.7 0.29 37.24 42.54 -36.75 42.35 34.16 0 20.13 -22.77 21.1 23.08 32.95 -0.73 -36.64 -42.1 37.86 -42.68 -33.82 -0.15 -21.26 23.4 -0.95 -1.04z"/>
   <ellipse class="fil1" cx="207.9" cy="95.94" rx="68.58" ry="60.4"/>
   <path class="fil3" d="M207.9 34.25c19.26,0 36.71,6.88 49.34,18.01 12.68,11.17 20.52,26.61 20.52,43.67 0,17.07 -7.84,32.51 -20.52,43.67 -12.64,11.13 -30.08,18.01 -49.34,18.01 -19.26,0 -36.71,-6.88 -49.34,-18.01 -12.68,-11.17 -20.52,-26.61 -20.52,-43.67 0,-17.07 7.84,-32.51 20.52,-43.67 12.64,-11.13 30.08,-18.01 49.34,-18.01zm47.65 19.94c-12.19,-10.73 -29.03,-17.37 -47.65,-17.37 -18.62,0 -35.46,6.64 -47.65,17.37 -12.14,10.69 -19.65,25.45 -19.65,41.75 0,16.29 7.51,31.06 19.65,41.75 12.19,10.73 29.03,17.37 47.65,17.37 18.62,0 35.46,-6.64 47.65,-17.37 12.14,-10.69 19.65,-25.45 19.65,-41.75 0,-16.29 -7.51,-31.06 -19.65,-41.75z"/>
   <ellipse class="fil11" cx="207.9" cy="95.94" rx="15.88" ry="13.7"/>
   <path class="fil3" d="M207.9 80.95c4.7,0 8.97,1.65 12.07,4.33 3.15,2.72 5.1,6.48 5.1,10.65 0,4.17 -1.95,7.94 -5.1,10.65 -3.1,2.67 -7.37,4.33 -12.07,4.33 -4.7,0 -8.97,-1.65 -12.07,-4.33 -3.15,-2.72 -5.1,-6.48 -5.1,-10.65 0,-4.17 1.95,-7.94 5.1,-10.65 3.1,-2.67 7.37,-4.33 12.07,-4.33zm10.39 6.26c-2.65,-2.28 -6.32,-3.7 -10.39,-3.7 -4.07,0 -7.75,1.41 -10.39,3.7 -2.6,2.24 -4.21,5.32 -4.21,8.72 0,3.39 1.61,6.48 4.21,8.72 2.65,2.28 6.32,3.7 10.39,3.7 4.07,0 7.75,-1.41 10.39,-3.7 2.6,-2.24 4.21,-5.32 4.21,-8.72 0,-3.39 -1.61,-6.48 -4.21,-8.72z"/>
   <path class="fil3" d="M442.36 29.74l42.06 -6.7 -0.39 15.49 -42.98 4.69 0.25 -13.31 1.06 -0.17zm39.43 -3.69l-37.97 6.05 -0.15 8.26 37.87 -4.13 0.25 -10.18z"/>
   <path class="fil12" d="M48.28 71.55l48.45 0 0 25.83 -49.73 0 0 -25.83 1.28 0zm45.88 2.57l-44.6 0 0 20.69 44.6 0 0 -20.69z"/>
   <rect class="fil8" x="58.23" y="82.78" width="26.79" height="4.17"/>
   <path class="fil3" d="M58.23 81.5l28.07 0 0 6.74 -29.36 0 0 -6.74 1.28 0zm25.51 2.57l-24.22 0 0 1.6 24.22 0 0 -1.6z"/>
   <path class="fil13" d="M207.9 44.6c-32.87,0 -59.52,22.98 -59.52,51.34 0,6.97 1.61,13.62 4.53,19.68 7.63,-3.89 16.45,-8.3 25.7,-12.88 -0.68,-2.17 -1.04,-4.45 -1.04,-6.8 0,-14.44 13.57,-26.15 30.32,-26.15 8.56,0 16.3,3.06 21.81,7.99 10.83,-5.24 20.03,-9.67 25.92,-12.5 -10.85,-12.54 -28.19,-20.67 -47.73,-20.67z"/>
   <path class="fil3" d="M207.9 45.88c-16.12,0 -30.7,5.63 -41.25,14.72 -10.49,9.05 -16.99,21.54 -16.99,35.33 0,3.35 0.38,6.62 1.11,9.77 0.65,2.81 1.57,5.55 2.74,8.17 3.04,-1.54 6.62,-3.35 10.63,-5.36 4.42,-2.22 8.75,-4.37 12.94,-6.45 -0.22,-0.82 -0.39,-1.66 -0.52,-2.5 -0.18,-1.19 -0.28,-2.4 -0.28,-3.63 0,-7.61 3.56,-14.49 9.33,-19.46 5.71,-4.93 13.59,-7.98 22.28,-7.98 4.35,0 8.5,0.77 12.28,2.15 3.64,1.33 6.93,3.24 9.73,5.6 5.13,-2.48 9.87,-4.77 14.06,-6.79l9.58 -4.61c-5.24,-5.68 -11.89,-10.36 -19.49,-13.65 -7.86,-3.4 -16.74,-5.32 -26.16,-5.32zm-42.92 12.78c11,-9.49 26.17,-15.35 42.92,-15.35 9.76,0 18.99,2 27.17,5.54 8.51,3.68 15.88,9.04 21.53,15.58l1.09 1.26 -12.61 6.07c-4.39,2.12 -9.4,4.53 -14.81,7.15l-0.77 0.37 -0.64 -0.57c-2.69,-2.4 -5.93,-4.34 -9.56,-5.67 -3.49,-1.28 -7.35,-1.99 -11.4,-1.99 -8.06,0 -15.34,2.81 -20.6,7.34 -5.21,4.49 -8.43,10.69 -8.43,17.52 0,1.1 0.08,2.19 0.24,3.25 0.17,1.09 0.41,2.15 0.73,3.17l0.32 1.04 -0.98 0.49c-5.07,2.51 -9.76,4.84 -13.89,6.91 -3.76,1.89 -7.7,3.87 -11.79,5.96l-1.17 0.59 -0.57 -1.18c-1.52,-3.16 -2.7,-6.47 -3.49,-9.9 -0.77,-3.35 -1.18,-6.81 -1.18,-10.34 0,-14.56 6.83,-27.74 17.88,-37.27z"/>
   <path class="fil14" d="M238.22 95.94c0,14.44 -13.57,26.15 -30.32,26.15 -8.79,0 -16.71,-3.23 -22.25,-8.39l-25.52 12.86c10.85,12.57 28.21,20.72 47.77,20.72 32.87,0 59.52,-22.98 59.52,-51.34 0,-7.42 -1.83,-14.48 -5.11,-20.85l-25.53 12.86c0.94,2.52 1.44,5.2 1.44,7.99z"/>
   <path class="fil3" d="M239.5 95.94c0,7.61 -3.56,14.49 -9.33,19.46 -5.71,4.93 -13.59,7.98 -22.28,7.98 -4.47,0 -8.72,-0.81 -12.58,-2.26 -3.72,-1.4 -7.07,-3.41 -9.88,-5.87l-23.25 11.71c5.25,5.71 11.91,10.41 19.52,13.71 7.87,3.41 16.76,5.33 26.19,5.33 16.12,0 30.7,-5.63 41.25,-14.72 10.49,-9.05 16.99,-21.54 16.99,-35.33 0,-3.57 -0.43,-7.04 -1.25,-10.37 -0.74,-3.02 -1.8,-5.95 -3.15,-8.75l-23.38 11.78c0.32,1 0.58,2.03 0.76,3.07 0.25,1.41 0.39,2.84 0.39,4.28zm-11 17.52c5.21,-4.49 8.43,-10.69 8.43,-17.52 0,-1.32 -0.12,-2.6 -0.34,-3.83 -0.23,-1.27 -0.57,-2.51 -1.02,-3.72l-0.4 -1.08 27.68 -13.94 0.58 1.13c1.71,3.31 3.04,6.81 3.93,10.46 0.87,3.55 1.33,7.22 1.33,10.98 0,14.56 -6.83,27.74 -17.88,37.27 -11,9.49 -26.17,15.35 -42.92,15.35 -9.77,0 -19.01,-2 -27.2,-5.55 -8.52,-3.69 -15.89,-9.06 -21.54,-15.61l-1.07 -1.24 27.78 -13.99 0.65 0.61c2.7,2.52 6,4.55 9.7,5.95 3.57,1.34 7.52,2.09 11.68,2.09 8.06,0 15.34,-2.81 20.6,-7.34z"/>
   <path class="fil1 str1" d="M94.16 94.81l0 -20.69 -44.6 0 0 20.69 44.6 0zm-35.93 -13.31l28.07 0 0 6.74 -29.36 0 0 -6.74 1.28 0z"/>
  </g>
 </g>
</svg>
