<?xml version="1.0" encoding="UTF-8"?>
<!DOCTYPE svg PUBLIC "-//W3C//DTD SVG 1.1//EN" "http://www.w3.org/Graphics/SVG/1.1/DTD/svg11.dtd">
<!-- Creator: CorelDRAW 2019 (64-Bit) -->
<svg xmlns="http://www.w3.org/2000/svg" xml:space="preserve" width="43.8034mm" height="43.8034mm" version="1.1" style="shape-rendering:geometricPrecision; text-rendering:geometricPrecision; image-rendering:optimizeQuality; fill-rule:evenodd; clip-rule:evenodd"
viewBox="0 0 64.39 64.39"
 xmlns:xlink="http://www.w3.org/1999/xlink">
 <defs>
  <style type="text/css">
   <![CDATA[
    .fil2 {fill:#FEFEFE}
    .fil3 {fill:#2B2A29}
    .fil0 {fill:#2C2119}
    .fil4 {fill:#4F5154}
    .fil1 {fill:#2B2A29;fill-rule:nonzero}
   ]]>
  </style>
 </defs>
 <g id="Capa_x0020_1">
  <metadata id="CorelCorpID_0Corel-Layer"/>
  <circle class="fil0" cx="32.2" cy="32.2" r="32.05"/>
  <path class="fil1" d="M32.2 0c8.89,0 16.94,3.6 22.77,9.43 5.83,5.83 9.43,13.88 9.43,22.77 0,8.89 -3.6,16.94 -9.43,22.77 -5.83,5.83 -13.88,9.43 -22.77,9.43 -8.89,0 -16.94,-3.6 -22.77,-9.43 -5.83,-5.83 -9.43,-13.88 -9.43,-22.77 0,-8.89 3.6,-16.94 9.43,-22.77 5.83,-5.83 13.88,-9.43 22.77,-9.43zm22.56 9.64c-5.77,-5.77 -13.75,-9.34 -22.56,-9.34 -8.81,0 -16.79,3.57 -22.56,9.34 -5.77,5.77 -9.34,13.75 -9.34,22.56 0,8.81 3.57,16.79 9.34,22.56 5.77,5.77 13.75,9.34 22.56,9.34 8.81,0 16.79,-3.57 22.56,-9.34 5.77,-5.77 9.34,-13.75 9.34,-22.56 0,-8.81 -3.57,-16.79 -9.34,-22.56z"/>
  <circle class="fil2" cx="32.2" cy="32.2" r="27.72"/>
  <path class="fil1" d="M32.2 4.33c7.69,0 14.66,3.12 19.7,8.16 5.04,5.04 8.16,12.01 8.16,19.7 0,7.69 -3.12,14.66 -8.16,19.7 -5.04,5.04 -12.01,8.16 -19.7,8.16 -7.69,0 -14.66,-3.12 -19.7,-8.16 -5.04,-5.04 -8.16,-12.01 -8.16,-19.7 0,-7.69 3.12,-14.66 8.16,-19.7 5.04,-5.04 12.01,-8.16 19.7,-8.16zm19.49 8.37c-4.99,-4.99 -11.88,-8.08 -19.49,-8.08 -7.61,0 -14.51,3.09 -19.49,8.08 -4.99,4.99 -8.08,11.88 -8.08,19.49 0,7.61 3.09,14.51 8.08,19.49 4.99,4.99 11.88,8.08 19.49,8.08 7.61,0 14.51,-3.09 19.49,-8.08 4.99,-4.99 8.08,-11.88 8.08,-19.49 0,-7.61 -3.09,-14.51 -8.08,-19.49z"/>
  <circle class="fil3" cx="32.2" cy="32.2" r="16.98"/>
  <path class="fil1" d="M32.2 15.07c4.73,0 9.01,1.92 12.11,5.02 3.1,3.1 5.02,7.38 5.02,12.11 0,4.73 -1.92,9.01 -5.02,12.11 -3.1,3.1 -7.38,5.02 -12.11,5.02 -4.73,0 -9.01,-1.92 -12.11,-5.02 -3.1,-3.1 -5.02,-7.38 -5.02,-12.11 0,-4.73 1.92,-9.01 5.02,-12.11 3.1,-3.1 7.38,-5.02 12.11,-5.02zm11.9 5.22c-3.05,-3.05 -7.26,-4.93 -11.9,-4.93 -4.65,0 -8.86,1.88 -11.9,4.93 -3.05,3.05 -4.93,7.26 -4.93,11.9 0,4.65 1.88,8.86 4.93,11.9 3.05,3.05 7.26,4.93 11.9,4.93 4.65,0 8.86,-1.88 11.9,-4.93 3.05,-3.05 4.93,-7.26 4.93,-11.9 0,-4.65 -1.88,-8.86 -4.93,-11.9z"/>
  <circle class="fil4" cx="32.2" cy="32.2" r="12.63"/>
  <path class="fil1" d="M32.2 19.42c3.53,0 6.72,1.43 9.03,3.74 2.31,2.31 3.74,5.5 3.74,9.03 0,3.53 -1.43,6.72 -3.74,9.03 -2.31,2.31 -5.5,3.74 -9.03,3.74 -3.53,0 -6.72,-1.43 -9.03,-3.74 -2.31,-2.31 -3.74,-5.5 -3.74,-9.03 0,-3.53 1.43,-6.72 3.74,-9.03 2.31,-2.31 5.5,-3.74 9.03,-3.74zm8.82 3.95c-2.26,-2.26 -5.38,-3.65 -8.82,-3.65 -3.45,0 -6.57,1.4 -8.82,3.65 -2.26,2.26 -3.65,5.38 -3.65,8.82 0,3.45 1.4,6.57 3.65,8.82 2.26,2.26 5.38,3.65 8.82,3.65 3.45,0 6.57,-1.4 8.82,-3.65 2.26,-2.26 3.65,-5.38 3.65,-8.82 0,-3.45 -1.4,-6.57 -3.65,-8.82z"/>
 </g>
</svg>
